<svg xmlns="http://www.w3.org/2000/svg" xmlns:xlink="http://www.w3.org/1999/xlink" width="16" height="14" viewBox="0 0 16 14"><defs><linearGradient id="a" x1="0.5" x2="0.5" y2="1" gradientUnits="objectBoundingBox"><stop offset="0" stop-color="#50b53d"/><stop offset="1" stop-color="#285b1f"/></linearGradient></defs><path d="M8,32c-4.418,0-8,2.909-8,6.5a5.769,5.769,0,0,0,1.781,4.084A7.95,7.95,0,0,1,.069,45.577a.248.248,0,0,0-.047.272A.245.245,0,0,0,.25,46a7.146,7.146,0,0,0,4.393-1.606A9.53,9.53,0,0,0,8,45c4.418,0,8-2.909,8-6.5S12.418,32,8,32Z" transform="translate(0 -32)" fill="url(#a)"/></svg>